<?xml version="1.0" encoding="UTF-8"?>
<svg version="1.1" xmlns="http://www.w3.org/2000/svg" width="1558" height="553">
<path d="M0 0 C0.91437836 -0.00467285 1.82875671 -0.0093457 2.77084351 -0.01416016 C18.2984689 -0.04502008 33.58610566 0.46315273 45.5 11.75 C51.66425065 22.1818088 52.59496451 31.24265801 49.68359375 42.94921875 C46.05756529 56.38148771 40.6003132 68.75936104 33.125 80.5 C32.485625 81.634375 31.84625 82.76875 31.1875 83.9375 C23.02166176 98.26937936 13.3764841 111.37446755 2.49609375 123.734375 C0.15395768 126.23987759 0.15395768 126.23987759 -0.875 128.5 C-1.535 128.5 -2.195 128.5 -2.875 128.5 C-3.143125 129.0775 -3.41125 129.655 -3.6875 130.25 C-4.90429189 132.55550043 -6.17833879 134.52056192 -7.875 136.5 C-8.535 136.5 -9.195 136.5 -9.875 136.5 C-10.16375 137.098125 -10.4525 137.69625 -10.75 138.3125 C-11.875 140.5 -11.875 140.5 -13.875 143.5 C-12.885 144.428125 -12.885 144.428125 -11.875 145.375 C-9.875 147.5 -9.875 147.5 -9.875 149.5 C-9.215 149.5 -8.555 149.5 -7.875 149.5 C-2.875 154.97619048 -2.875 154.97619048 -2.875 157.5 C-2.215 157.5 -1.555 157.5 -0.875 157.5 C4.125 162.97619048 4.125 162.97619048 4.125 165.5 C4.785 165.5 5.445 165.5 6.125 165.5 C11.125 170.97619048 11.125 170.97619048 11.125 173.5 C11.785 173.5 12.445 173.5 13.125 173.5 C18.125 178.97619048 18.125 178.97619048 18.125 181.5 C18.785 181.5 19.445 181.5 20.125 181.5 C25.125 186.97619048 25.125 186.97619048 25.125 189.5 C25.785 189.5 26.445 189.5 27.125 189.5 C32.125 194.97619048 32.125 194.97619048 32.125 197.5 C32.785 197.5 33.445 197.5 34.125 197.5 C39.125 202.97619048 39.125 202.97619048 39.125 205.5 C39.785 205.5 40.445 205.5 41.125 205.5 C46.125 210.97619048 46.125 210.97619048 46.125 213.5 C46.785 213.5 47.445 213.5 48.125 213.5 C53.125 218.97619048 53.125 218.97619048 53.125 221.5 C53.785 221.5 54.445 221.5 55.125 221.5 C56.4552109 223.01227067 57.71527591 224.58669024 58.9375 226.1875 C61.82207937 229.88514752 64.76476836 233.22377415 68.125 236.5 C70.12643847 238.69732393 72.09533412 240.9208589 74.05859375 243.15234375 C75.41617843 244.69470366 76.78313458 246.22887458 78.16015625 247.75390625 C78.78792969 248.45386719 79.41570312 249.15382813 80.0625 249.875 C80.62839844 250.50148438 81.19429687 251.12796875 81.77734375 251.7734375 C83.125 253.5 83.125 253.5 84.125 256.5 C84.785 256.5 85.445 256.5 86.125 256.5 C87.35464571 258.19491706 88.57862679 259.89459731 89.7578125 261.625 C91.22473475 263.73835598 91.22473475 263.73835598 93.8125 266.1875 C95.89292802 268.26792802 97.02857569 269.80877669 98.125 272.5 C98.785 272.5 99.445 272.5 100.125 272.5 C101.35464571 274.19491706 102.57862679 275.89459731 103.7578125 277.625 C105.22473475 279.73835598 105.22473475 279.73835598 107.8125 282.1875 C109.89292802 284.26792802 111.02857569 285.80877669 112.125 288.5 C112.785 288.5 113.445 288.5 114.125 288.5 C115.35464571 290.19491706 116.57862679 291.89459731 117.7578125 293.625 C119.22473475 295.73835598 119.22473475 295.73835598 121.8125 298.1875 C123.89292802 300.26792802 125.02857569 301.80877669 126.125 304.5 C126.785 304.5 127.445 304.5 128.125 304.5 C129.35464571 306.19491706 130.57862679 307.89459731 131.7578125 309.625 C133.22473475 311.73835598 133.22473475 311.73835598 135.8125 314.1875 C137.89292802 316.26792802 139.02857569 317.80877669 140.125 320.5 C140.785 320.5 141.445 320.5 142.125 320.5 C143.35464571 322.19491706 144.57862679 323.89459731 145.7578125 325.625 C147.22473475 327.73835598 147.22473475 327.73835598 149.8125 330.1875 C151.89292802 332.26792802 153.02857569 333.80877669 154.125 336.5 C154.785 336.5 155.445 336.5 156.125 336.5 C157.35464571 338.19491706 158.57862679 339.89459731 159.7578125 341.625 C161.22473475 343.73835598 161.22473475 343.73835598 163.8125 346.1875 C165.89292802 348.26792802 167.02857569 349.80877669 168.125 352.5 C168.785 352.5 169.445 352.5 170.125 352.5 C172.3125 354.8125 172.3125 354.8125 174.125 357.5 C173.795 358.49 173.465 359.48 173.125 360.5 C171.08380212 358.88405168 169.08427063 357.2143618 167.125 355.5 C167.125 354.84 167.125 354.18 167.125 353.5 C166.56167969 353.25636719 165.99835938 353.01273437 165.41796875 352.76171875 C162.69160719 351.26152321 160.70956625 349.43821738 158.4375 347.3125 C154.37684972 343.57163347 150.19605186 340.16964522 145.7421875 336.91015625 C145.20851563 336.44480469 144.67484375 335.97945313 144.125 335.5 C144.125 334.84 144.125 334.18 144.125 333.5 C143.57328125 333.2525 143.0215625 333.005 142.453125 332.75 C139.67363293 331.25765526 137.3435293 329.46327477 134.875 327.5 C133.98296875 326.79875 133.0909375 326.0975 132.171875 325.375 C131.49640625 324.75625 130.8209375 324.1375 130.125 323.5 C130.125 322.84 130.125 322.18 130.125 321.5 C129.526875 321.21125 128.92875 320.9225 128.3125 320.625 C126.125 319.5 126.125 319.5 123.125 317.5 C123.125 316.84 123.125 316.18 123.125 315.5 C122.30708984 315.16162109 122.30708984 315.16162109 121.47265625 314.81640625 C118.42692673 313.1085679 116.07179215 310.82945554 113.5625 308.4375 C108.82380794 304.00120031 103.93641197 299.84560076 98.875 295.77734375 C94.89639874 292.48256458 91.12236433 288.9853545 87.33984375 285.46875 C85.28820879 283.47328212 85.28820879 283.47328212 83.125 282.5 C83.125 281.84 83.125 281.18 83.125 280.5 C82.526875 280.21125 81.92875 279.9225 81.3125 279.625 C79.125 278.5 79.125 278.5 76.125 276.5 C76.125 275.84 76.125 275.18 76.125 274.5 C75.526875 274.21125 74.92875 273.9225 74.3125 273.625 C72.125 272.5 72.125 272.5 69.125 270.5 C69.125 269.84 69.125 269.18 69.125 268.5 C68.526875 268.21125 67.92875 267.9225 67.3125 267.625 C65.125 266.5 65.125 266.5 62.125 264.5 C62.125 263.84 62.125 263.18 62.125 262.5 C61.465 262.5 60.805 262.5 60.125 262.5 C60.125 261.84 60.125 261.18 60.125 260.5 C58.475 259.84 56.825 259.18 55.125 258.5 C55.125 257.84 55.125 257.18 55.125 256.5 C54.465 256.5 53.805 256.5 53.125 256.5 C53.125 255.84 53.125 255.18 53.125 254.5 C52.526875 254.21125 51.92875 253.9225 51.3125 253.625 C49.125 252.5 49.125 252.5 46.125 250.5 C46.125 249.84 46.125 249.18 46.125 248.5 C45.57328125 248.26796875 45.0215625 248.0359375 44.453125 247.796875 C41.49989769 246.15178865 39.33387779 244.06837049 36.875 241.75 C32.91610588 238.07274533 28.93520129 234.72186221 24.48828125 231.65625 C23.81345703 231.08390625 23.81345703 231.08390625 23.125 230.5 C23.125 229.84 23.125 229.18 23.125 228.5 C22.56941406 228.26410156 22.01382813 228.02820313 21.44140625 227.78515625 C18.56124409 226.1872248 16.46130924 224.194995 14.0625 221.9375 C7.73999106 216.08896763 1.17686772 210.56415482 -5.6953125 205.3671875 C-6.41460937 204.75101563 -7.13390625 204.13484375 -7.875 203.5 C-7.875 202.84 -7.875 202.18 -7.875 201.5 C-8.473125 201.21125 -9.07125 200.9225 -9.6875 200.625 C-11.875 199.5 -11.875 199.5 -14.875 197.5 C-14.875 196.84 -14.875 196.18 -14.875 195.5 C-15.473125 195.21125 -16.07125 194.9225 -16.6875 194.625 C-18.875 193.5 -18.875 193.5 -21.875 191.5 C-21.875 190.84 -21.875 190.18 -21.875 189.5 C-22.41511719 189.27957031 -22.95523438 189.05914062 -23.51171875 188.83203125 C-26.65751698 187.05894498 -29.09435075 184.66408024 -31.6875 182.1875 C-35.03495218 179.03891142 -38.31224177 176.02612113 -42.125 173.4375 C-43.48625 172.4784375 -43.48625 172.4784375 -44.875 171.5 C-44.875 170.84 -44.875 170.18 -44.875 169.5 C-45.43058594 169.26410156 -45.98617187 169.02820313 -46.55859375 168.78515625 C-49.43875591 167.1872248 -51.53869076 165.194995 -53.9375 162.9375 C-58.70379702 158.5235502 -63.59434753 154.38259022 -68.66015625 150.3125 C-70.875 148.5 -70.875 148.5 -72.875 146.5 C-72.875 145.51 -72.875 144.52 -72.875 143.5 C-70.80848536 141.65458179 -68.78312781 140.01274251 -66.5625 138.375 C-65.96759766 137.91996094 -65.37269531 137.46492187 -64.75976562 136.99609375 C-62.15626767 135.03547071 -59.98639478 133.53713159 -56.875 132.5 C-56.875 131.84 -56.875 131.18 -56.875 130.5 C-52.40441176 126.5 -52.40441176 126.5 -49.875 126.5 C-49.875 125.84 -49.875 125.18 -49.875 124.5 C-48.4140625 122.9921875 -48.4140625 122.9921875 -46.5 121.375 C-45.87351562 120.83617187 -45.24703125 120.29734375 -44.6015625 119.7421875 C-42.875 118.5 -42.875 118.5 -40.875 118.5 C-40.875 117.84 -40.875 117.18 -40.875 116.5 C-39.4765625 115.125 -39.4765625 115.125 -37.5 113.5 C-23.48023094 101.50421169 -3.43921691 81.71637531 -1.56640625 62.30078125 C-1.16538127 55.66612863 -1.16538127 55.66612863 -3.6875 49.71484375 C-10.18714674 43.13395143 -19.54938099 43.24606107 -28.1875 43.1875 C-50.10599422 43.1718489 -70.87076114 48.72391832 -91.875 54.5 C-93.97256532 55.07194817 -96.0702163 55.6435823 -98.16796875 56.21484375 C-99.73700927 56.64311888 -101.30603178 57.07146005 -102.875 57.5 C-103.02195312 58.67949219 -103.16890625 59.85898438 -103.3203125 61.07421875 C-104.88941898 73.07333955 -107.09871758 84.85883991 -109.60961914 96.69506836 C-111.16377351 104.03004205 -112.63073802 111.36696454 -113.9375 118.75 C-115.53739271 127.78211395 -117.29877666 136.77566127 -119.12524414 145.76464844 C-120.69484748 153.50624054 -122.23776195 161.25329677 -123.41015625 169.06640625 C-124.95859056 177.86380708 -128.62608426 182.34855435 -134.875 188.5 C-135.58785156 189.4178125 -136.30070312 190.335625 -137.03515625 191.28125 C-137.64230469 192.0134375 -138.24945313 192.745625 -138.875 193.5 C-139.535 193.5 -140.195 193.5 -140.875 193.5 C-141.101875 194.03625 -141.32875 194.5725 -141.5625 195.125 C-143.33070089 198.32460161 -145.41170203 200.79037223 -147.875 203.5 C-148.535 203.5 -149.195 203.5 -149.875 203.5 C-150.143125 204.0775 -150.41125 204.655 -150.6875 205.25 C-151.90429189 207.55550043 -153.17833879 209.52056192 -154.875 211.5 C-155.535 211.5 -156.195 211.5 -156.875 211.5 C-157.2779126 212.38727783 -157.2779126 212.38727783 -157.68896484 213.29248047 C-158.88000959 215.50932415 -160.10990034 217.01665807 -161.8515625 218.8203125 C-162.43647461 219.43382568 -163.02138672 220.04733887 -163.62402344 220.67944336 C-164.2430957 221.32147705 -164.86216797 221.96351074 -165.5 222.625 C-170.461584 227.833647 -175.11029935 233.07545457 -179.421875 238.83984375 C-180.14117187 239.66162109 -180.14117187 239.66162109 -180.875 240.5 C-181.535 240.5 -182.195 240.5 -182.875 240.5 C-183.2153125 241.304375 -183.2153125 241.304375 -183.5625 242.125 C-185.33070089 245.32460161 -187.41170203 247.79037223 -189.875 250.5 C-190.535 250.5 -191.195 250.5 -191.875 250.5 C-192.11863281 251.06203125 -192.36226563 251.6240625 -192.61328125 252.203125 C-194.11680936 254.94019785 -195.94199748 256.95795941 -198.0625 259.25 C-198.866875 260.12785156 -199.67125 261.00570313 -200.5 261.91015625 C-201.28375 262.76480469 -202.0675 263.61945313 -202.875 264.5 C-204.10940928 265.89119917 -205.33910588 267.2866045 -206.5625 268.6875 C-207.39394531 269.63689453 -207.39394531 269.63689453 -208.2421875 270.60546875 C-209.36542802 271.90875022 -210.47408415 273.22469857 -211.5703125 274.55078125 C-212.37082031 275.51564453 -212.37082031 275.51564453 -213.1875 276.5 C-213.89326172 277.36625 -213.89326172 277.36625 -214.61328125 278.25 C-215.875 279.5 -215.875 279.5 -217.875 279.5 C-217.875 280.16 -217.875 280.82 -217.875 281.5 C-218.535 281.5 -219.195 281.5 -219.875 281.5 C-216.16119858 267.29633842 -211.85386532 253.26045087 -207.140625 239.359375 C-205.69457673 235.0212302 -204.41510088 230.63651737 -203.125 226.25 C-200.35714679 216.8594957 -197.26142864 207.5911077 -194.13305664 198.31542969 C-191.7551795 191.23385382 -189.5260069 184.13451082 -187.47851562 176.95117188 C-186.15494395 172.33956953 -184.59242788 167.87076387 -182.89331055 163.38671875 C-181.8116399 160.32038605 -180.92984799 157.24011276 -180.06640625 154.10546875 C-177.73132739 145.84391982 -174.99656693 137.72989624 -172.22949219 129.60449219 C-169.55450307 121.73377308 -167.08215147 113.84878154 -164.83984375 105.84423828 C-163.34261829 100.65471541 -161.61479331 95.5497768 -159.875 90.4375 C-156.84575382 81.43718358 -153.92515005 72.42312754 -151.22851562 63.31689453 C-148.45764319 53.96235329 -145.64770632 44.63155784 -142.5625 35.375 C-142.18085693 34.22898315 -142.18085693 34.22898315 -141.79150391 33.05981445 C-140.0107535 27.771507 -140.0107535 27.771507 -138.875 25.5 C-136.15671585 24.55532764 -133.47565068 23.73159649 -130.70703125 22.9609375 C-129.43281563 22.59798836 -129.43281563 22.59798836 -128.13285828 22.22770691 C-125.32073096 21.4323172 -122.50477962 20.65193295 -119.6875 19.875 C-118.72150879 19.60710663 -117.75551758 19.33921326 -116.76025391 19.0632019 C-97.28825626 13.6853918 -77.74042091 9.15332976 -57.875 5.5 C-57.15217834 5.36422546 -56.42935669 5.22845093 -55.68463135 5.08856201 C-37.10728985 1.60567093 -18.90957611 0.04205588 0 0 Z "  transform="translate(455.875,57.5)"/>
<path d="M0 0 C0.66 0 1.32 0 2 0 C0.46517316 7.31368245 -1.3522686 14.26461505 -4.02734375 21.2421875 C-5.38407359 25.08897973 -6.29608602 29.00435715 -7.19140625 32.98046875 C-7.99810256 35.9929144 -9.05854124 38.84427512 -10.17700195 41.75268555 C-11.74848758 46.04385291 -13.00581948 50.43500957 -14.3125 54.8125 C-16.53223202 62.1837078 -18.78574019 69.54083588 -21.125 76.875 C-22.98922436 82.7302399 -24.78528778 88.5992517 -26.5 94.5 C-28.40510866 101.05060794 -30.41612725 107.5612414 -32.48608398 114.06152344 C-34.68444218 120.97282393 -36.82890495 127.90022449 -38.9692688 134.8296814 C-41.86264544 144.19568404 -44.80883307 153.52907603 -47.95703125 162.8125 C-49.42785772 167.30761011 -50.69587468 171.8529085 -51.97265625 176.40625 C-54.97216077 186.89881335 -58.38152352 197.26475174 -61.88671875 207.59765625 C-63.01466001 211.04480306 -64.01084699 214.51058938 -65 218 C-66.07027395 221.56648437 -67.16083828 225.12674452 -68.25 228.6875 C-70.04424917 234.56014169 -71.8375048 240.43267454 -73.58203125 246.3203125 C-76.6109443 256.54128711 -79.81687703 266.68116326 -83.24710083 276.77474976 C-84.0338325 279.09999452 -84.81162784 281.42807676 -85.5871582 283.75708008 C-85.85301224 284.55527664 -86.11886627 285.35347321 -86.39277649 286.17585754 C-86.59316025 286.77782455 -86.79354401 287.37979156 -87 288 C-86.32609034 287.8851315 -85.65218067 287.770263 -84.9578495 287.65191364 C-61.76745423 283.71285041 -38.53095676 280.08949709 -15.28480482 276.49668097 C-9.92255887 275.66754125 -4.56061861 274.83642898 0.80136108 274.00556946 C9.81938545 272.60846107 18.83760008 271.21258684 27.85595703 269.81762695 C36.99607342 268.40383222 46.13605837 266.98919245 55.27587891 265.57348633 C56.39634212 265.39993335 57.51680533 265.22638036 58.67122197 265.0475682 C60.92580116 264.69834075 63.18037983 264.34910996 65.43495798 263.99987578 C79.65211217 261.79766338 93.86934485 259.59596557 108.08721924 257.39840698 C109.12525578 257.23796414 110.16329232 257.07752129 111.23278451 256.91221654 C115.31085189 256.28191958 119.38892291 255.65164621 123.46700907 255.02147079 C135.22755248 253.20404962 146.9872443 251.38134283 158.7454493 249.54885471 C163.07208066 248.87502154 167.39911238 248.20376421 171.72611618 247.53232765 C173.88770716 247.196159 176.04909484 246.85867995 178.21025467 246.5197506 C181.03989351 246.07600934 183.87017875 245.63666339 186.70068359 245.19848633 C187.48997631 245.0733774 188.27926903 244.94826847 189.09247971 244.81936836 C192.76069841 244.25621442 196.28667483 243.85961282 200 244 C200 244.99 200 245.98 200 247 C185.58066854 253.61883986 171.01484065 259.78908379 156.3125 265.75 C154.13107627 266.63714004 151.94968016 267.524348 149.76831055 268.41162109 C134.02026389 274.80913478 118.2352573 281.10513485 102.39941406 287.28173828 C97.45845377 289.20979764 92.52236639 291.15021919 87.5859375 293.08984375 C67.31463622 301.05019024 47.01713597 308.93981488 26.6875 316.75 C25.61647034 317.16152313 24.54544067 317.57304626 23.44195557 317.99703979 C14.44824958 321.4524013 5.45395484 324.9062304 -3.54064941 328.35925293 C-35.6111254 340.67240476 -67.6207693 353.1117985 -99.4730835 365.97973633 C-101.95884973 366.98338523 -104.44534919 367.9851933 -106.93212891 368.98632812 C-110.87944876 370.57555383 -114.82567111 372.16747167 -118.77096558 373.76171875 C-120.28549639 374.37359009 -121.80024291 374.98492782 -123.31521606 375.59570312 C-131.90023806 379.05905841 -140.44359588 382.60223328 -148.9453125 386.265625 C-151.40177506 387.31662441 -153.85868095 388.36658196 -156.31564331 389.41641235 C-158.61829969 390.40770917 -160.91167808 391.41848753 -163.20532227 392.43041992 C-177.21881336 398.49275368 -177.21881336 398.49275368 -185 397 C-186 396 -186 396 -186.27734375 392.39453125 C-186.21262675 387.91511923 -184.71505731 384.55250067 -182.5625 380.6875 C-181.82196551 379.28634481 -181.08378114 377.88394562 -180.34765625 376.48046875 C-179.76781982 375.38677979 -179.76781982 375.38677979 -179.17626953 374.27099609 C-177.17163898 370.40070274 -175.34341893 366.44892586 -173.5 362.5 C-170.74045865 356.6276441 -167.92469461 350.79187096 -165 345 C-160.49967821 336.07874099 -156.251029 327.04204379 -152 318 C-147.37097978 308.15395954 -142.70293388 298.33994417 -137.80395508 288.625 C-135.31974504 283.68257964 -132.97926974 278.68541116 -130.68359375 273.65234375 C-128.5684433 269.03616198 -126.37449649 264.45745597 -124.1875 259.875 C-123.75783936 258.97450928 -123.32817871 258.07401855 -122.88549805 257.14624023 C-122.0141827 255.32013899 -121.14284482 253.49404848 -120.27148438 251.66796875 C-118.32015213 247.57346822 -116.37823742 243.47453043 -114.4375 239.375 C-113.88787598 238.2149646 -113.88787598 238.2149646 -113.32714844 237.03149414 C-111.45270417 233.07410464 -109.58264593 229.11471296 -107.71875 225.15234375 C-103.52630776 216.25101196 -99.25528616 207.39846727 -94.82421875 198.61328125 C-94.52692871 198.02369629 -94.22963867 197.43411133 -93.92333984 196.82666016 C-93.28019066 195.55430632 -92.63448685 194.28324192 -91.98681641 193.01318359 C-89.82054189 188.7371282 -87.87010836 184.41621894 -86 180 C-84.79563956 177.34241013 -83.55675406 174.70161215 -82.3125 172.0625 C-81.96509766 171.32378662 -81.61769531 170.58507324 -81.25976562 169.82397461 C-78.91470143 164.86395257 -76.48262025 159.95481238 -74 155.0625 C-71.15393787 149.44759718 -68.52227511 143.76731102 -66 138 C-63.20181296 131.60336487 -60.23221237 125.33358734 -57.0703125 119.109375 C-54.45418758 113.94838149 -51.9603341 108.73689163 -49.5 103.5 C-46.68013683 97.50143701 -43.79944145 91.54217337 -40.8125 85.625 C-37.9641725 79.97741835 -35.24902308 74.28563184 -32.62109375 68.53125 C-27.56620482 57.52011845 -22.33742131 46.5980745 -16.8815918 35.78027344 C-13.75265121 29.55515604 -10.80718429 23.25114532 -7.88964844 16.92480469 C-6.29093144 13.46589008 -4.67552481 10.014759 -3.0625 6.5625 C-2.46998396 5.29300054 -1.87752942 4.02347238 -1.28515625 2.75390625 C-0.86105469 1.84511719 -0.43695313 0.93632813 0 0 Z "  transform="translate(288,98)"/>
<path d="M0 0 C10.56 0 21.12 0 32 0 C34.29194111 14.89761724 34.29194111 14.89761724 35.03515625 22.22265625 C35.16053017 23.41271523 35.16053017 23.41271523 35.28843689 24.6268158 C35.5494042 27.10508001 35.80644314 29.58372398 36.0625 32.0625 C36.40426612 35.36623919 36.74987891 38.66954512 37.09765625 41.97265625 C37.21174583 43.09451073 37.21174583 43.09451073 37.32814026 44.23902893 C37.6798906 47.57951337 38.1742643 50.75035735 39 54 C39.24699248 56.16727952 39.45866442 58.33868125 39.6484375 60.51171875 C39.76525879 61.81592773 39.88208008 63.12013672 40.00244141 64.46386719 C40.06312805 65.15331421 40.1238147 65.84276123 40.18634033 66.55310059 C41.18076965 77.80356748 42.27721621 89.03553253 43.625 100.25 C43.74794434 101.28342529 43.87088867 102.31685059 43.99755859 103.3815918 C44.48304853 107.33682811 45.01963819 111.13702163 46 115 C46.17629912 116.91410478 46.31820234 118.83149888 46.4375 120.75 C46.88443627 126.96585215 47.59964671 133.12226103 48.3984375 139.30078125 C49.13613069 145.00852603 49.81669713 150.72303168 50.5 156.4375 C50.62785889 157.50508545 50.75571777 158.5726709 50.88745117 159.67260742 C51.93689223 168.44700757 52.97378632 177.22285478 54 186 C54.0303995 182.33335268 54.04724009 178.66673904 54.0625 175 C54.07506836 173.51306641 54.07506836 173.51306641 54.08789062 171.99609375 C54.10692766 165.79001969 53.9497244 159.62355296 53.64065456 153.42631531 C52.88727555 137.91966275 52.86785364 122.42256973 52.89860606 106.90225983 C52.90497774 103.12673638 52.90545407 99.35121159 52.90663147 95.57568359 C52.90970496 88.46849062 52.917863 81.36131356 52.92798096 74.2541275 C52.93926789 66.14490037 52.94468381 58.03567236 52.94967639 49.92643929 C52.96005031 33.28428337 52.97777836 16.64214437 53 0 C59.93 0 66.86 0 74 0 C74 86.13 74 172.26 74 261 C63.44 261 52.88 261 42 261 C41.54625 257.24625 41.0925 253.4925 40.625 249.625 C40.48658691 248.48369629 40.34817383 247.34239258 40.20556641 246.16650391 C39.07583754 236.78430044 38.0334294 227.39317967 37 218 C36.67850833 215.0820177 36.35685736 212.16405297 36.03515625 209.24609375 C35.95600479 208.52812622 35.87685333 207.81015869 35.79530334 207.07043457 C34.33961795 193.8758526 32.87435212 180.68250547 31.3125 167.5 C31.19334229 166.48091553 31.07418457 165.46183105 30.95141602 164.41186523 C30.83983154 163.48188721 30.72824707 162.55190918 30.61328125 161.59375 C30.51829346 160.79646484 30.42330566 159.99917969 30.32543945 159.17773438 C30.04316615 157.02812129 30.04316615 157.02812129 29.50219727 155.07885742 C28.86527072 152.44228495 28.61595907 149.8441926 28.3515625 147.14453125 C28.23498291 145.97857422 28.11840332 144.81261719 27.99829102 143.61132812 C27.87510498 142.35771484 27.75191895 141.10410156 27.625 139.8125 C26.69025113 130.53026631 25.70569766 121.25935558 24.5625 112 C22.51286445 95.35556973 20.77651376 78.67534347 19 62 C18.97207604 63.74990122 18.95320561 65.49994647 18.9375 67.25 C18.92589844 68.22453125 18.91429687 69.1990625 18.90234375 70.203125 C18.98297153 73.33793304 19.19062135 76.39095532 19.47045898 79.51123047 C20.08241778 86.52581921 20.32804684 93.5335372 20.53515625 100.5703125 C20.55634584 101.27181112 20.57753544 101.97330975 20.59936714 102.6960659 C20.76435392 108.17209964 20.91500333 113.64847108 21.0625 119.125 C21.08486473 119.93898129 21.10722946 120.75296257 21.13027191 121.59160995 C22.40271757 168.05382423 22.18973575 214.52495661 22 261 C14.74 261 7.48 261 0 261 C0 174.87 0 88.74 0 0 Z M55 196 C55 199.3 55 202.6 55 206 C55.33 206 55.66 206 56 206 C56 202.7 56 199.4 56 196 C55.67 196 55.34 196 55 196 Z M56 211 C57 213 57 213 57 213 Z "  transform="translate(1252,146)"/>
<path d="M0 0 C2.76283326 2.52816954 4.0740547 4.80096316 5.6875 8.16796875 C6.18765625 9.18761719 6.6878125 10.20726562 7.203125 11.2578125 C9.49521555 16.77768878 9.58422986 22.01109318 9.57794189 27.92668152 C9.58091302 28.80186174 9.58388414 29.67704197 9.5869453 30.5787428 C9.59561622 33.51108238 9.59713919 36.44338105 9.59863281 39.37573242 C9.60326214 41.4784453 9.60828696 43.58115734 9.61367798 45.68386841 C9.62679339 51.39687117 9.63324533 57.10986218 9.63768864 62.82287765 C9.64062091 66.39345377 9.64472602 69.9640267 9.64919281 73.53460121 C9.66286583 84.70988455 9.6725333 95.88516056 9.6763947 107.06045169 C9.68087431 119.95351334 9.69841858 132.84646892 9.7273953 145.73949832 C9.74902445 155.70995112 9.75909965 165.68037411 9.76043582 175.65085012 C9.76148301 181.60356526 9.7673726 187.55618067 9.78525543 193.50887108 C9.80175722 199.11081649 9.80388129 204.71258741 9.79511642 210.31454849 C9.79434717 212.36636765 9.798674 214.41819627 9.80857468 216.46999168 C9.8991952 236.42633435 9.8991952 236.42633435 6.4375 244.23046875 C6.1741045 244.86334399 5.910709 245.49621923 5.63933182 246.14827251 C2.75308792 252.09449539 -2.28465133 255.82156888 -8.234375 258.37890625 C-12.52795646 259.47749869 -16.52390363 259.56031779 -20.9375 259.54296875 C-21.74960938 259.55908203 -22.56171875 259.57519531 -23.3984375 259.59179688 C-31.9479654 259.59864746 -38.39618052 257.24263024 -44.5625 251.23046875 C-44.5625 250.57046875 -44.5625 249.91046875 -44.5625 249.23046875 C-45.2225 249.23046875 -45.8825 249.23046875 -46.5625 249.23046875 C-51.10225263 242.79915252 -51.85726442 236.71107021 -51.82319641 229.09010315 C-51.82702196 228.17928338 -51.83084751 227.26846362 -51.83478898 226.33004326 C-51.84509382 223.28320227 -51.84113159 220.23655061 -51.8371582 217.18969727 C-51.84150604 215.00315171 -51.84668943 212.81660768 -51.85264587 210.63006592 C-51.8660388 204.69417294 -51.86661424 198.75834362 -51.86408257 192.82243848 C-51.86301314 187.86704748 -51.86789549 182.91166937 -51.872688 177.95628113 C-51.88441845 165.59797426 -51.88355749 153.23969879 -51.87713119 140.88139003 C-51.87196183 130.15526352 -51.88321885 119.42922783 -51.90222941 108.70311929 C-51.92161289 97.68187521 -51.9295716 86.66067619 -51.92610615 75.6394152 C-51.9242924 69.45487068 -51.92693885 63.27040934 -51.94082069 57.08587837 C-51.95338548 51.2705187 -51.95146758 45.45534097 -51.93840981 39.63998413 C-51.93604161 37.50628028 -51.93878739 35.37256367 -51.94703293 33.23887444 C-51.95748123 30.32497739 -51.9494149 27.411693 -51.9367218 24.49781799 C-51.94409609 23.65461913 -51.95147037 22.81142027 -51.95906812 21.94266993 C-51.88040185 13.35144212 -48.57079141 6.40709592 -42.5625 0.23046875 C-30.0984966 -8.53328364 -12.53901564 -8.65880196 0 0 Z M-26.4375 17.54296875 C-29.13091072 21.58308482 -28.70795029 25.87726882 -28.70294189 30.52999878 C-28.70591302 31.38658022 -28.70888414 32.24316166 -28.7119453 33.12570012 C-28.72064314 36.0068242 -28.72214145 38.88790678 -28.72363281 41.76904297 C-28.72826017 43.830313 -28.73328472 45.89158217 -28.73867798 47.95285034 C-28.75181079 53.56026727 -28.75824851 59.16767223 -28.76268864 64.77510214 C-28.76561757 68.27627951 -28.76972201 71.77745359 -28.77419281 75.2786293 C-28.78786925 86.22698638 -28.79753553 97.17533595 -28.8013947 108.12370098 C-28.80587779 120.77346141 -28.82343675 133.42311392 -28.8523953 146.07284153 C-28.87398892 155.84360218 -28.88409772 165.61433242 -28.88543582 175.3851167 C-28.88648539 181.22424345 -28.89242567 187.06326876 -28.91025543 192.90237045 C-28.92669628 198.3934702 -28.92891101 203.88439182 -28.92011642 209.37550735 C-28.91934394 211.39233628 -28.9237164 213.40917463 -28.93357468 215.42597961 C-28.94623247 218.17652412 -28.94045104 220.92643184 -28.92999268 223.67697144 C-28.93804908 224.47746001 -28.94610548 225.27794859 -28.95440602 226.10269439 C-28.91398561 230.63932257 -28.42078892 233.64105747 -25.5625 237.23046875 C-23.64105705 238.01246814 -23.64105705 238.01246814 -21.5625 237.85546875 C-20.881875 237.86835938 -20.20125 237.88125 -19.5 237.89453125 C-17.37096316 237.35893912 -17.37096316 237.35893912 -15.96521568 235.22509003 C-14.14535303 231.33991252 -14.14652744 227.85482838 -14.18154907 223.65246582 C-14.17452911 222.35890506 -14.17452911 222.35890506 -14.16736734 221.03921175 C-14.15540394 218.15033356 -14.16487987 215.26192857 -14.17431641 212.37304688 C-14.17025131 210.30162784 -14.16490978 208.23021097 -14.15838623 206.15879822 C-14.14469955 200.53285095 -14.15001692 194.90706857 -14.15952349 189.28111839 C-14.16711304 183.39643277 -14.16007643 177.51176137 -14.15536499 171.6270752 C-14.14990539 161.74435895 -14.15710444 151.86170994 -14.17138672 141.97900391 C-14.18771358 130.54946711 -14.18242522 119.12009086 -14.1659075 107.69055796 C-14.15229848 97.88152901 -14.15037013 88.07254842 -14.15822351 78.26351309 C-14.16290322 72.40319277 -14.16351663 66.54294793 -14.15361404 60.68263245 C-14.14495521 55.1734267 -14.15094662 49.66442816 -14.16829681 44.15524483 C-14.17226743 42.13197232 -14.17111782 40.1086824 -14.16450882 38.08541679 C-14.15632604 35.32619876 -14.16657545 32.56764711 -14.18154907 29.80847168 C-14.17151082 28.60394875 -14.17151082 28.60394875 -14.16126978 27.37509203 C-14.20883866 22.86419476 -14.59182668 19.72726632 -17.5625 16.23046875 C-21.11945956 15.72233167 -23.42237777 15.43238319 -26.4375 17.54296875 Z "  transform="translate(1225.5625,149.76953125)"/>
<path d="M0 0 C45 0 45 0 53 6 C53 6.66 53 7.32 53 8 C53.99 8.33 54.98 8.66 56 9 C59.76032894 15.3233089 60.58481461 21.79779776 60.51757812 29.00439453 C60.5245874 29.94885437 60.53159668 30.89331421 60.53881836 31.86639404 C60.55627258 34.95550863 60.54482227 38.04369033 60.53125 41.1328125 C60.53394807 43.29654108 60.53783311 45.46026847 60.54284668 47.62399292 C60.54872432 52.14446632 60.54023295 56.66462226 60.52148438 61.18505859 C60.49866876 66.96637223 60.51184588 72.74694405 60.53577423 78.52823067 C60.55025565 82.99105378 60.54561588 87.45370212 60.53526306 91.91653061 C60.53260369 94.04789189 60.5358376 96.17926927 60.54518127 98.31061172 C60.55538842 101.29229814 60.53978837 104.27279619 60.51757812 107.25439453 C60.52567505 108.12629425 60.53377197 108.99819397 60.54211426 109.89651489 C60.46308118 115.65012268 59.37775831 120.24910216 56 125 C54.06922311 126.6745408 52.26252612 127.76589484 50 129 C50.55429687 129.36351562 51.10859375 129.72703125 51.6796875 130.1015625 C52.40414062 130.60429687 53.12859375 131.10703125 53.875 131.625 C54.59429688 132.11226562 55.31359375 132.59953125 56.0546875 133.1015625 C59.5417205 136.50457061 60.10601365 140.6248657 60.2515564 145.33863831 C60.26283462 147.03765225 60.26341416 148.73675867 60.25537109 150.43579102 C60.25899155 151.36853851 60.262612 152.30128601 60.26634216 153.26229858 C60.27322117 155.28382454 60.27574441 157.305369 60.27439499 159.3269062 C60.27342459 162.54675253 60.28643856 165.76626962 60.30337524 168.98606873 C60.3494524 178.14001827 60.37418637 187.29393649 60.38085938 196.44799805 C60.38593278 202.05721349 60.41048472 207.66609046 60.44618607 213.27519035 C60.45586194 215.39299403 60.45838431 217.51084505 60.45301437 219.62866402 C60.41839534 233.97172782 61.94323246 246.95989552 65 261 C57.08 261 49.16 261 41 261 C39.2152636 256.538159 38.39241057 252.78641917 37.89648438 248.09179688 C37.81234032 247.30794365 37.72819626 246.52409042 37.64150238 245.71648407 C36.75610986 236.6769303 36.68826211 227.64036091 36.66447449 218.56437683 C36.65604002 215.45381098 36.63541762 212.34351893 36.61193848 209.23303223 C36.55613995 201.53092333 36.52012789 193.8287493 36.48431396 186.12652588 C36.45312174 179.566315 36.41405451 173.00624715 36.36405945 166.44615173 C36.34399034 163.38046381 36.33568052 160.31488538 36.32775879 157.24914551 C36.31479916 155.38679593 36.30128076 153.52445013 36.28710938 151.66210938 C36.28858223 150.38283318 36.28858223 150.38283318 36.29008484 149.07771301 C36.4376538 144.56431565 36.4376538 144.56431565 34 141 C30.37 140.67 26.74 140.34 23 140 C23 179.93 23 219.86 23 261 C15.41 261 7.82 261 0 261 C0 174.87 0 88.74 0 0 Z M23 22 C23 53.68 23 85.36 23 118 C31.09999033 118.45628629 31.09999033 118.45628629 35.02305603 117.03466797 C38.06584026 113.90303869 37.68957933 110.57669667 37.63110352 106.4453125 C37.63825882 105.57187195 37.64541412 104.6984314 37.65278625 103.79852295 C37.66971683 100.90681911 37.65024557 98.01665611 37.62890625 95.125 C37.62973455 93.11865104 37.63219245 91.11230213 37.63621521 89.10595703 C37.6390762 84.8992065 37.62434256 80.69298752 37.59692383 76.48632812 C37.56284068 71.08877905 37.56885648 65.69218076 37.5875864 60.29458618 C37.5981452 56.15104217 37.58922875 52.00772014 37.57420158 47.86419678 C37.56901108 45.87384703 37.56951206 43.88347419 37.57574654 41.89312744 C37.5811852 39.11313879 37.56086738 36.33452013 37.53344727 33.5546875 C37.53997314 32.72862 37.54649902 31.90255249 37.55322266 31.05145264 C37.55593788 28.50421634 37.55593788 28.50421634 37 25 C32.5 21 32.5 21 23 22 Z "  transform="translate(955,146)"/>
<path d="M0 0 C6.22675945 4.23848253 10.38446799 10.41360798 13.04296875 17.390625 C13.5738084 20.55795655 13.57633482 23.64809551 13.53744507 26.85415649 C13.5422739 27.77555778 13.54710273 28.69695906 13.55207789 29.6462816 C13.56330109 32.71711767 13.5460658 35.78711217 13.52880859 38.85791016 C13.53095562 41.06607793 13.53483503 43.2742446 13.54031372 45.48240662 C13.54999365 51.46779378 13.53472112 57.45288189 13.51440763 63.4382329 C13.49682074 69.70412885 13.50036201 75.97001579 13.50112915 82.2359314 C13.49925717 92.75564055 13.48201415 103.27525301 13.45458984 113.79492188 C13.42640408 124.61232598 13.412249 135.42962898 13.41357422 146.24707031 C13.41369409 147.24694001 13.41369409 147.24694001 13.41381638 148.26700909 C13.41393744 149.26517414 13.41393744 149.26517414 13.41406095 150.28350413 C13.41537152 161.98632581 13.40507134 173.68910872 13.38847733 185.39191818 C13.38141605 190.37184343 13.37775146 195.35175411 13.37668991 200.33168411 C13.37468109 206.19383686 13.36247178 212.05588346 13.34235764 217.91800117 C13.33651572 220.06985766 13.33405527 222.22172636 13.33521271 224.37359047 C13.33619431 227.30952678 13.32488099 230.24516589 13.31039429 233.18106079 C13.31349149 234.03359015 13.3165887 234.88611951 13.31977975 235.76448309 C13.28224459 240.36712338 12.8003131 244.05769441 11.04296875 248.390625 C10.38296875 248.390625 9.72296875 248.390625 9.04296875 248.390625 C8.96046875 248.9475 8.87796875 249.504375 8.79296875 250.078125 C7.33622998 254.56973621 4.52227832 257.2837807 0.54296875 259.640625 C-8.31927626 264.07174751 -20.75172127 263.96587569 -30.25 261.5546875 C-37.34983397 258.27445413 -42.39438262 252.94065037 -45.52484226 245.82887173 C-47.22276705 241.1794456 -47.37991918 236.93376067 -47.3447113 232.02320862 C-47.35009684 231.11209114 -47.35548238 230.20097365 -47.36103112 229.26224655 C-47.37527503 226.22620508 -47.36821574 223.1906018 -47.36108398 220.15454102 C-47.36678939 217.97094371 -47.37375431 215.7873494 -47.38188171 213.60375977 C-47.39980887 207.68435341 -47.39864557 201.76509533 -47.39293933 195.84566998 C-47.38984698 190.90030284 -47.39594043 185.95496415 -47.40197808 181.00960106 C-47.41682247 168.67488957 -47.41321103 156.34025906 -47.40111477 144.00554769 C-47.39180081 133.97230837 -47.40115058 123.93922236 -47.42358398 113.90600586 C-47.44957377 102.23944845 -47.46202088 90.5729949 -47.45539623 78.90640777 C-47.45202713 72.73633895 -47.4544389 66.56641302 -47.47164726 60.39636421 C-47.4871241 54.59405145 -47.48315229 48.79206874 -47.46434212 42.98976898 C-47.4606584 40.863355 -47.46375834 38.73691653 -47.47422791 36.61052513 C-47.48745404 33.70164631 -47.4758756 30.79385757 -47.45823669 27.88502502 C-47.4726442 26.63101162 -47.4726442 26.63101162 -47.48734277 25.3516646 C-47.39426344 17.86131363 -44.8619745 10.3895056 -39.65625 4.80859375 C-28.99893897 -4.08474856 -12.65442367 -6.18563911 0 0 Z M-21.83203125 20.765625 C-24.46520256 24.56909467 -24.10224794 28.13465355 -24.09747314 32.60786438 C-24.10044427 33.46767495 -24.10341539 34.32748552 -24.10647655 35.21335095 C-24.1151889 38.11140057 -24.11667393 41.009409 -24.11816406 43.9074707 C-24.12279045 45.97844532 -24.12781486 48.04941908 -24.13320923 50.12039185 C-24.14635262 55.75885874 -24.15278197 61.39731372 -24.15721989 67.03579354 C-24.16014751 70.55589411 -24.16425172 74.0759914 -24.16872406 77.59609032 C-24.18240413 88.6021159 -24.19206828 99.60813401 -24.19592595 110.61416751 C-24.20040803 123.33298836 -24.21796077 136.05170181 -24.24692655 148.77048999 C-24.26852051 158.59218547 -24.27862901 168.41385068 -24.27996707 178.23556966 C-24.28101674 184.10601021 -24.28695901 189.97634988 -24.30478668 195.84676552 C-24.32122783 201.36822042 -24.32344211 206.88949817 -24.31464767 212.41096878 C-24.31387517 214.43908473 -24.31824792 216.46721006 -24.32810593 218.4953022 C-24.34076324 221.26122576 -24.33498251 224.02651602 -24.32452393 226.79243469 C-24.33258033 227.59749634 -24.34063673 228.40255798 -24.34893727 229.23201543 C-24.30865029 233.77873363 -23.82501856 236.79404744 -20.95703125 240.390625 C-19.0355883 241.17262439 -19.0355883 241.17262439 -16.95703125 241.015625 C-16.27640625 241.02851563 -15.59578125 241.04140625 -14.89453125 241.0546875 C-12.76549441 240.51909537 -12.76549441 240.51909537 -11.35974693 238.38524628 C-9.53988428 234.50006877 -9.54105869 231.01498463 -9.57608032 226.81262207 C-9.56906036 225.51906131 -9.56906036 225.51906131 -9.56189859 224.199368 C-9.54993519 221.31048981 -9.55941112 218.42208482 -9.56884766 215.53320312 C-9.56478256 213.46178409 -9.55944103 211.39036722 -9.55291748 209.31895447 C-9.5392308 203.6930072 -9.54454817 198.06722482 -9.55405474 192.44127464 C-9.56164429 186.55658902 -9.55460768 180.67191762 -9.54989624 174.78723145 C-9.54443664 164.9045152 -9.55163569 155.02186619 -9.56591797 145.13916016 C-9.58224483 133.70962336 -9.57695647 122.28024711 -9.56043875 110.85071421 C-9.54682973 101.04168526 -9.54490138 91.23270467 -9.55275476 81.42366934 C-9.55743447 75.56334902 -9.55804788 69.70310418 -9.54814529 63.8427887 C-9.53948646 58.33358295 -9.54547787 52.82458441 -9.56282806 47.31540108 C-9.56679868 45.29212857 -9.56564907 43.26883865 -9.55904007 41.24557304 C-9.55085729 38.48635501 -9.5611067 35.72780336 -9.57608032 32.96862793 C-9.56604207 31.764105 -9.56604207 31.764105 -9.55580103 30.53524828 C-9.60336991 26.02435101 -9.98635793 22.88742257 -12.95703125 19.390625 C-16.5436416 18.87825209 -18.83506557 18.56785017 -21.83203125 20.765625 Z "  transform="translate(810.95703125,146.609375)"/>
<path d="M0 0 C10.23 0 20.46 0 31 0 C32.10580934 2.21161867 32.20726676 3.60122507 32.35717773 6.05639648 C32.43747475 7.31558144 32.43747475 7.31558144 32.51939392 8.60020447 C32.60067284 9.97179466 32.60067284 9.97179466 32.68359375 11.37109375 C32.74402359 12.32202408 32.80445343 13.27295441 32.86671448 14.25270081 C33.06107975 17.31405918 33.24991625 20.37571907 33.4375 23.4375 C34.18008441 35.5434897 34.98574007 47.60962925 36.32528687 59.66593933 C36.95315873 65.3572753 37.36430053 71.02638596 37.5625 76.75 C37.6231178 78.36991396 37.68685861 79.98971443 37.75390625 81.609375 C37.77783447 82.28967773 37.8017627 82.96998047 37.82641602 83.67089844 C37.96368878 85.51278619 38.20061673 87.34722011 38.47265625 89.17407227 C39.08933582 93.64813967 39.40089912 98.10008713 39.68359375 102.60546875 C39.80791782 104.49674643 39.93226766 106.38802241 40.05664062 108.27929688 C40.24624728 111.21176654 40.43473707 114.14430415 40.62231445 117.0769043 C41.25961966 126.98763342 41.94268332 136.87430838 43 146.75 C44.30674136 159.07449226 44.90378633 171.43964705 45.5625 183.8125 C45.75062351 187.31536467 45.94011548 190.81813433 46.13328552 194.32072449 C46.25211302 196.477551 46.3680587 198.63453894 46.48060608 200.79170227 C46.76174067 205.91741702 47.21167078 210.92215124 48 216 C48.18548585 217.89929782 48.35258065 219.800494 48.5 221.703125 C48.5820166 222.75773926 48.6640332 223.81235352 48.74853516 224.89892578 C48.83151855 226.00478027 48.91450195 227.11063477 49 228.25 C49.13027588 229.96098877 49.13027588 229.96098877 49.26318359 231.70654297 C49.99123471 241.46625255 50.53449616 251.22441946 51 261 C42.75 261 34.5 261 26 261 C25.33136772 257.65683861 24.85376692 254.91219419 24.70288086 251.5871582 C24.66291489 250.74470047 24.62294891 249.90224274 24.58177185 249.03425598 C24.54318558 248.13220932 24.5045993 247.23016266 24.46484375 246.30078125 C24.42186661 245.35172409 24.37888947 244.40266693 24.33460999 243.42485046 C24.24451571 241.41181773 24.15638273 239.3986964 24.07006836 237.38549805 C23.93989577 234.3680351 23.80148733 231.35103437 23.66210938 228.33398438 C23.13477928 216.54748356 22.87528712 204.79783881 23 193 C18.38 193 13.76 193 9 193 C9.02320313 194.39605469 9.04640625 195.79210937 9.0703125 197.23046875 C9.2403136 212.50816464 8.4304853 227.60229784 7.24365234 242.83007812 C6.92397813 246.98904602 6.64421771 251.15001719 6.375 255.3125 C6.25125 257.189375 6.1275 259.06625 6 261 C-1.26 261 -8.52 261 -16 261 C-16.2061266 244.30374567 -15.32729733 227.67213878 -13.8034668 211.04931641 C-12.17691078 193.2037591 -10.9593994 175.31594264 -10.34155273 157.40625 C-10.31005127 156.54386719 -10.2785498 155.68148437 -10.24609375 154.79296875 C-10.22216553 154.0558667 -10.1982373 153.31876465 -10.17358398 152.55932617 C-9.98176388 149.7311263 -9.60869159 146.93945606 -9.24525452 144.1290741 C-8.84417752 140.6472926 -8.67278799 137.15953031 -8.5 133.66015625 C-8.45939453 132.89376328 -8.41878906 132.1273703 -8.37695312 131.3377533 C-8.24858921 128.91280153 -8.12385986 126.4876857 -8 124.0625 C-7.83637384 120.86571778 -7.66914732 117.66915052 -7.5 114.47265625 C-7.46455078 113.7567482 -7.42910156 113.04084015 -7.39257812 112.30323792 C-7.20380487 108.73597711 -6.92845279 105.20324275 -6.51147461 101.6550293 C-5.90865903 96.46251429 -5.60642789 91.26494378 -5.31640625 86.046875 C-5.25661087 85.0045874 -5.19681549 83.9622998 -5.13520813 82.88842773 C-4.94199207 79.50907904 -4.75224206 76.12954536 -4.5625 72.75 C-4.42938479 70.41437744 -4.2960826 68.07876552 -4.16259766 65.74316406 C-3.55302712 55.03817193 -2.95846005 44.33249647 -2.39453125 33.625 C-2.34923782 32.76876038 -2.3039444 31.91252075 -2.25727844 31.03033447 C-2.04945106 27.09432079 -1.84487045 23.15819298 -1.64672852 19.22167969 C-1.57445671 17.83007422 -1.50211416 16.43847242 -1.4296875 15.046875 C-1.37022949 13.86963867 -1.31077148 12.69240234 -1.24951172 11.47949219 C-0.97420277 7.64025231 -0.47742189 3.8193751 0 0 Z M15 67 C14.6851017 73.29154891 14.37289628 79.5832274 14.0625 85.875 C14.01642609 86.80749573 13.97035217 87.73999146 13.92288208 88.70074463 C13.31282813 101.08688261 12.73754676 113.47148837 12.34204102 125.86669922 C12.18805718 130.38120745 11.93767947 134.84568603 11.4765625 139.33984375 C10.85318273 145.79081889 10.89023287 152.21190355 10.9375 158.6875 C10.94201172 159.87794922 10.94652344 161.06839844 10.95117188 162.29492188 C10.96282548 165.19666936 10.97918441 168.09830626 11 171 C14.3 171 17.6 171 21 171 C20.87943471 166.3266414 20.75511428 161.65340111 20.62768555 156.98022461 C20.58504982 155.39887023 20.54334507 153.81749041 20.50268555 152.23608398 C20.27642102 143.46204835 19.95516977 134.71181302 19.40188599 125.95181274 C18.71630456 114.79040769 18.36187666 103.611189 17.9375 92.4375 C17.84585981 90.05793667 17.75406403 87.67837932 17.66210938 85.29882812 C17.43961531 79.53261976 17.21903122 73.76634089 17 68 C16.34 67.67 15.68 67.34 15 67 Z "  transform="translate(1044,146)"/>
<path d="M0 0 C2.77187333 1.74588341 4.82249459 3.68565064 6.91015625 6.203125 C7.63203125 7.028125 8.35390625 7.853125 9.09765625 8.703125 C15.45947132 17.47804234 14.05617711 29.53961166 14.0078125 39.87109375 C14.00639755 41.03191971 14.0049826 42.19274567 14.00352478 43.38874817 C13.99797683 47.0560679 13.9854343 50.72332407 13.97265625 54.390625 C13.96763451 56.89387932 13.96307279 59.39713461 13.95898438 61.90039062 C13.94888011 68.00134562 13.92929485 74.10216508 13.91015625 80.203125 C5.99015625 80.203125 -1.92984375 80.203125 -10.08984375 80.203125 C-10.11957275 77.63664185 -10.11957275 77.63664185 -10.14990234 75.01831055 C-10.21766228 69.36639271 -10.29443669 63.71464555 -10.37737083 58.06293011 C-10.42732547 54.63615152 -10.47365532 51.20940364 -10.51171875 47.7824707 C-10.55563262 43.84308417 -10.61528103 39.90401192 -10.67578125 35.96484375 C-10.68733246 34.73352219 -10.69888367 33.50220062 -10.71078491 32.23356628 C-10.7306546 31.09261002 -10.75052429 29.95165375 -10.77099609 28.77612305 C-10.78431976 27.770186 -10.79764343 26.76424896 -10.81137085 25.72782898 C-10.9209013 22.95805891 -10.9209013 22.95805891 -13.08984375 20.203125 C-16.58984375 19.703125 -16.58984375 19.703125 -20.08984375 20.203125 C-22.31856014 23.54619959 -22.34215244 24.62397653 -22.34863281 28.52563477 C-22.35493713 29.61429337 -22.36124146 30.70295197 -22.36773682 31.82460022 C-22.36368835 33.00267746 -22.35963989 34.1807547 -22.35546875 35.39453125 C-22.3573822 36.60954819 -22.35929565 37.82456512 -22.36126709 39.07640076 C-22.36262975 41.65290534 -22.35892773 44.22941676 -22.35058594 46.8059082 C-22.33995238 50.7255832 -22.35044528 54.64479306 -22.36328125 58.56445312 C-22.3619584 61.0703135 -22.35939343 63.5761736 -22.35546875 66.08203125 C-22.35951721 67.24593887 -22.36356567 68.4098465 -22.36773682 69.60902405 C-22.24981885 90.38434195 -12.76991535 107.10949729 -2.33984375 124.578125 C1.22749589 130.57964933 4.07676235 136.83004192 6.91015625 143.203125 C7.30332031 144.0178125 7.69648437 144.8325 8.1015625 145.671875 C16.31867446 162.89445653 14.07482565 184.57994678 14.04052734 203.17358398 C14.03512719 206.6593859 14.04052697 210.14506114 14.046875 213.63085938 C14.04621474 215.88281278 14.04493464 218.13476611 14.04296875 220.38671875 C14.04499298 221.41091415 14.04701721 222.43510956 14.04910278 223.49034119 C13.98741919 242.70970624 13.98741919 242.70970624 9.91015625 249.203125 C9.37390625 250.193125 8.83765625 251.183125 8.28515625 252.203125 C4.36235048 257.15824807 -0.83986465 260.91014897 -7.08984375 262.203125 C-17.34412147 263.13106078 -28.69081789 264.02196603 -37.08984375 257.203125 C-42.84882638 251.98907836 -45.8720012 245.87279853 -47.08984375 238.203125 C-47.17582041 235.87326763 -47.20756993 233.54115621 -47.20336914 231.2097168 C-47.20358818 230.18449669 -47.20358818 230.18449669 -47.20381165 229.13856506 C-47.20311837 226.89312499 -47.19535349 224.64776923 -47.1875 222.40234375 C-47.18563374 220.84007309 -47.18421082 219.27780185 -47.18321228 217.7155304 C-47.17940347 213.61382416 -47.16958721 209.51215361 -47.1585083 205.41046143 C-47.14825895 201.22091149 -47.14370712 197.03135575 -47.13867188 192.84179688 C-47.12796342 184.62888809 -47.11037992 176.4160151 -47.08984375 168.203125 C-39.16984375 168.203125 -31.24984375 168.203125 -23.08984375 168.203125 C-22.75984375 191.633125 -22.42984375 215.063125 -22.08984375 239.203125 C-19.11984375 239.203125 -16.14984375 239.203125 -13.08984375 239.203125 C-10.7147052 235.64041718 -10.82713617 234.07236416 -10.79931641 229.8425293 C-10.7865567 228.52653244 -10.773797 227.21053558 -10.76065063 225.85466003 C-10.75759018 224.41222277 -10.75536392 222.96978353 -10.75390625 221.52734375 C-10.7474735 220.04059218 -10.74074478 218.55384186 -10.73373413 217.0670929 C-10.72174591 213.94240394 -10.71805412 210.81782556 -10.71923828 207.69311523 C-10.71943982 203.72705127 -10.69231803 199.76171727 -10.65769386 195.795825 C-10.63521394 192.71817412 -10.63140735 189.6406918 -10.63245773 186.5629673 C-10.63012638 185.10361058 -10.62144525 183.6442474 -10.605793 182.18497276 C-10.47012156 168.20994099 -13.51634363 156.42591847 -19.71484375 143.890625 C-20.14506836 143.00181641 -20.57529297 142.11300781 -21.01855469 141.19726562 C-24.2444777 134.64234001 -27.82909815 128.35688936 -31.60644531 122.10766602 C-35.27198963 116.01424623 -38.34357072 109.76654482 -41.08984375 103.203125 C-41.47914063 102.3059375 -41.8684375 101.40875 -42.26953125 100.484375 C-48.36938184 85.34605967 -47.43347515 68.66293315 -47.40551758 52.64013672 C-47.40233349 48.81579693 -47.42597051 44.99221472 -47.45117188 41.16796875 C-47.45344314 38.71354263 -47.45414917 36.25911446 -47.453125 33.8046875 C-47.46233475 32.67326324 -47.47154449 31.54183899 -47.48103333 30.37612915 C-47.42317994 20.41870489 -45.44372291 12.48055429 -39.02734375 4.703125 C-28.31121196 -4.41698716 -12.84875473 -6.25908464 0 0 Z "  transform="translate(888.08984375,146.796875)"/>
<path d="M0 0 C6.3405028 4.7230276 9.74210512 9.88085142 11.9140625 17.42578125 C12.15457153 20.50106812 12.15457153 20.50106812 12.14111328 23.79833984 C12.14096222 25.03917328 12.14081116 26.28000671 12.14065552 27.55844116 C12.13044475 28.89703536 12.1200128 30.23562788 12.109375 31.57421875 C12.10564063 32.95569656 12.10279566 34.33717703 12.10079956 35.71865845 C12.09319642 39.33871896 12.07357687 42.95861668 12.0513916 46.57861328 C12.03086128 50.27894896 12.02178254 53.97931117 12.01171875 57.6796875 C11.99032746 64.9284679 11.95517283 72.17708094 11.9140625 79.42578125 C4.3240625 79.42578125 -3.2659375 79.42578125 -11.0859375 79.42578125 C-11.10052002 77.71479248 -11.11510254 76.00380371 -11.13012695 74.2409668 C-11.18176481 68.58899838 -11.24704686 62.93729803 -11.32165241 57.28558636 C-11.36638778 53.85879046 -11.40563638 50.4321143 -11.43237305 47.00512695 C-11.46334797 43.06565815 -11.51813848 39.12669474 -11.57421875 35.1875 C-11.58060867 33.95617844 -11.5869986 32.72485687 -11.59358215 31.45622253 C-11.61337631 30.31526627 -11.63317047 29.17431 -11.65356445 27.9987793 C-11.67021904 26.48987373 -11.67021904 26.48987373 -11.68721008 24.95048523 C-11.89356682 22.39699196 -11.89356682 22.39699196 -13.42155457 20.59700012 C-15.9771636 18.7986294 -18.0556729 19.10341268 -21.0859375 19.42578125 C-23.71643549 22.05627924 -23.35389896 23.25167191 -23.39233398 26.92260742 C-23.40832138 28.0752861 -23.42430878 29.22796478 -23.44078064 30.41557312 C-23.44614334 31.67062149 -23.45150604 32.92566986 -23.45703125 34.21875 C-23.46605972 35.5121077 -23.4750882 36.80546539 -23.48439026 38.13801575 C-23.50091304 40.88785285 -23.50858371 43.63756797 -23.51147461 46.38745117 C-23.51574841 49.18178854 -23.53634739 51.97518899 -23.57299805 54.76928711 C-24.14324422 76.18245552 -24.14324422 76.18245552 -18.0859375 96.42578125 C-17.51456385 97.66512658 -16.94445389 98.90505514 -16.37548828 100.14550781 C-13.6973445 105.83809383 -10.65623075 111.1890265 -7.2734375 116.48828125 C-3.67911493 122.19567237 -0.68001412 128.09104991 2.2265625 134.17578125 C2.64719971 135.05113525 3.06783691 135.92648926 3.5012207 136.82836914 C10.46907358 151.65135127 12.23508935 165.52367027 12.25 181.7734375 C12.25644253 183.43769948 12.26317192 185.10196037 12.27017212 186.76622009 C12.2820771 190.23650742 12.28585963 193.70669568 12.28466797 197.17700195 C12.28446435 201.6005625 12.31184123 206.02348378 12.34621239 210.44689274 C12.36855161 213.87779099 12.37250349 217.30853654 12.37144852 220.73950005 C12.37379103 222.36962539 12.38253747 223.99975582 12.39811325 225.62980843 C12.48829993 236.03522457 11.84466339 244.52987991 5.9140625 253.42578125 C5.2540625 253.42578125 4.5940625 253.42578125 3.9140625 253.42578125 C3.9140625 254.08578125 3.9140625 254.74578125 3.9140625 255.42578125 C2.47835984 256.24145299 1.04042816 257.05320218 -0.3984375 257.86328125 C-1.19894531 258.31574219 -1.99945312 258.76820313 -2.82421875 259.234375 C-10.71341382 263.3901686 -22.91217571 262.73761185 -31.3828125 260.58984375 C-37.8108353 257.615386 -43.26458399 252.7764967 -46.03096008 246.16838074 C-48.46912777 237.82362855 -48.4711818 229.64880988 -48.37890625 221.0390625 C-48.37329802 219.48537103 -48.36903374 217.93167418 -48.36604309 216.37797546 C-48.35469067 212.32553985 -48.32530863 208.27343642 -48.29193115 204.22113037 C-48.26102084 200.07129406 -48.24749336 195.92140309 -48.23242188 191.77148438 C-48.20042762 183.65608197 -48.14774066 175.54101144 -48.0859375 167.42578125 C-40.1659375 167.42578125 -32.2459375 167.42578125 -24.0859375 167.42578125 C-24.06611816 169.50552246 -24.04629883 171.58526367 -24.02587891 173.72802734 C-23.95905743 180.58933041 -23.88141699 187.45048005 -23.79841042 194.31160545 C-23.74840351 198.47267683 -23.70207409 202.63372226 -23.6640625 206.79492188 C-23.62726488 210.80856992 -23.58092047 214.82200325 -23.52787399 218.83546829 C-23.50930054 220.36887481 -23.49420354 221.90232741 -23.48259354 223.43580246 C-23.46578109 225.57900871 -23.43675962 227.72172006 -23.40478516 229.86474609 C-23.39146149 231.08608246 -23.37813782 232.30741882 -23.3644104 233.56576538 C-23.37890406 236.55631692 -23.37890406 236.55631692 -21.0859375 238.42578125 C-17.5859375 238.84244792 -17.5859375 238.84244792 -14.0859375 238.42578125 C-11.69462397 234.83881096 -11.83292341 233.24744122 -11.82714844 228.98583984 C-11.8236438 228.3366156 -11.82013916 227.68739136 -11.81652832 227.01849365 C-11.80772149 224.87029339 -11.81356039 222.72242244 -11.8203125 220.57421875 C-11.81896456 219.07548968 -11.81702296 217.57676103 -11.81451416 216.07803345 C-11.81156351 212.93235117 -11.81585495 209.78678237 -11.82519531 206.64111328 C-11.83653093 202.62992379 -11.83006773 198.6190037 -11.81805038 194.60782433 C-11.81077962 191.50894185 -11.81314451 188.41012183 -11.81830597 185.31123734 C-11.81963117 183.83381747 -11.81803479 182.35639175 -11.81334686 180.87897873 C-11.78531711 169.5516733 -12.94083602 160.1578929 -17.7109375 149.80078125 C-18.05995117 149.02951904 -18.40896484 148.25825684 -18.76855469 147.46362305 C-22.76913947 138.7434585 -27.26493486 130.30550376 -32.06640625 122 C-34.23813897 118.21237591 -36.20528854 114.33454333 -38.1484375 110.42578125 C-38.48681641 109.75289063 -38.82519531 109.08 -39.17382812 108.38671875 C-39.50705078 107.71898437 -39.84027344 107.05125 -40.18359375 106.36328125 C-40.47758057 105.77417969 -40.77156738 105.18507813 -41.07446289 104.578125 C-48.95338448 87.81235798 -48.57028411 69.83830064 -48.47705078 51.6159668 C-48.46082903 47.83801928 -48.4770565 44.0611203 -48.49609375 40.28320312 C-48.49411336 37.85025809 -48.49027394 35.41731369 -48.484375 32.984375 C-48.49044769 31.87066025 -48.49652039 30.7569455 -48.5027771 29.60948181 C-48.42455344 20.84880689 -47.27478269 12.14549976 -41.7421875 5.02734375 C-31.26430083 -5.10457496 -12.56982932 -7.66716393 0 0 Z "  transform="translate(1445.0859375,147.57421875)"/>
<path d="M0 0 C20.13 0 40.26 0 61 0 C61 7.26 61 14.52 61 22 C55.06 22 49.12 22 43 22 C43 100.87 43 179.74 43 261 C35.08 261 27.16 261 19 261 C19 182.13 19 103.26 19 22 C12.73 22 6.46 22 0 22 C0 14.74 0 7.48 0 0 Z "  transform="translate(1099,146)"/>
<path d="M0 0 C12.54 0 25.08 0 38 0 C38 7.26 38 14.52 38 22 C33.05 22 28.1 22 23 22 C23 53.02 23 84.04 23 116 C27.29 116 31.58 116 36 116 C36 123.26 36 130.52 36 138 C31.71 138 27.42 138 23 138 C23 171.33 23 204.66 23 239 C28.61 239 34.22 239 40 239 C40 246.26 40 253.52 40 261 C26.8 261 13.6 261 0 261 C0 174.87 0 88.74 0 0 Z "  transform="translate(1344,146)"/>
<path d="M0 0 C7.59 0 15.18 0 23 0 C23 78.87 23 157.74 23 239 C28.28 239 33.56 239 39 239 C40 240 40 240 40.11352539 242.04125977 C40.10828857 242.91580811 40.10305176 243.79035645 40.09765625 244.69140625 C40.09515869 245.54162354 40.09266113 246.39184082 40.09008789 247.26782227 C40.08098389 248.35506592 40.07187988 249.44230957 40.0625 250.5625 C40.041875 254.006875 40.02125 257.45125 40 261 C26.8 261 13.6 261 0 261 C0 174.87 0 88.74 0 0 Z "  transform="translate(710,146)"/>
<path d="M0 0 C1.828125 0.1640625 1.828125 0.1640625 4 1 C9.99441034 10.18091268 10.78373078 22.42007349 9 33 C5.03402013 46.60384511 -6.38782541 55.22893886 -18.11914062 61.97900391 C-26.27150706 66.40439285 -34.96210839 69.18657704 -43.9375 71.375 C-44.96580933 71.62697144 -44.96580933 71.62697144 -46.01489258 71.8840332 C-50.76083218 72.94975372 -55.13800376 73.14124235 -60 73 C-59 71 -58 69 -57 67 C-56.34 67 -55.68 67 -55 67 C-54.58681519 66.10921753 -54.58681519 66.10921753 -54.1652832 65.20043945 C-53.05755884 63.10869009 -51.91632957 61.55921318 -50.35546875 59.79296875 C-49.84306641 59.20580078 -49.33066406 58.61863281 -48.80273438 58.01367188 C-48.00319336 57.1097168 -48.00319336 57.1097168 -47.1875 56.1875 C-44.00885254 52.58450899 -40.95869879 49.0171001 -38.23828125 45.05078125 C-37.13033203 43.54064453 -37.13033203 43.54064453 -36 42 C-35.34 42 -34.68 42 -34 42 C-33.72454346 41.40614502 -33.44908691 40.81229004 -33.1652832 40.20043945 C-32.05755884 38.10869009 -30.91632957 36.55921318 -29.35546875 34.79296875 C-28.84306641 34.20580078 -28.33066406 33.61863281 -27.80273438 33.01367188 C-27.26970703 32.41103516 -26.73667969 31.80839844 -26.1875 31.1875 C-23.00885254 27.58450899 -19.95869879 24.0171001 -17.23828125 20.05078125 C-16.49964844 19.04402344 -15.76101563 18.03726562 -15 17 C-14.34 17 -13.68 17 -13 17 C-12.690625 16.38125 -12.38125 15.7625 -12.0625 15.125 C-11.375 13.75 -10.6875 12.375 -10 11 C-9.34 11 -8.68 11 -8 11 C-7.60167969 10.12601563 -7.60167969 10.12601563 -7.1953125 9.234375 C-5.96697004 6.93825772 -4.59685061 5.19643982 -2.875 3.25 C-2.33617187 2.63640625 -1.79734375 2.0228125 -1.2421875 1.390625 C-0.83226562 0.93171875 -0.42234375 0.4728125 0 0 Z "  transform="translate(339,243)"/>
</svg>
